Splice	

 
http://www.imdb.com/title/tt1017460/


Source  :

Splice.2009.R5.LINE.DVDR-TDM


Info : 

ID                               : 1
Format                           : AVC
Format/Info                      : Advanced Video Codec
Format profile                   : Baseline@L2.1
Format settings, CABAC           : No
Format settings, ReFrames        : 3 frames
Codec ID                         : avc1
Codec ID/Info                    : Advanced Video Coding
Duration                         : 1h 43mn
Bit rate mode                    : Variable
Bit rate                         : 395 Kbps
Width                            : 480 pixels
Height                           : 256 pixels
Display aspect ratio             : 1.875
Frame rate mode                  : Variable
Frame rate                       : 25.000 fps
Minimum frame rate               : 12.500 fps
Maximum frame rate               : 25.000 fps
Color space                      : YUV
Chroma subsampling               : 4:2:0
Bit depth                        : 8 bits
Scan type                        : Progressive
Bits/(Pixel*Frame)               : 0.129
Stream size                      : 291 MiB (75%)
Writing library                  : x264 core 79


ID                               : 2
Format                           : AAC
Format/Info                      : Advanced Audio Codec
Format version                   : Version 4
Format profile                   : LC
Format settings, SBR             : No
Codec ID                         : 40
Duration                         : 1h 43mn
Bit rate mode                    : Variable
Bit rate                         : 128 Kbps
Maximum bit rate                 : 163 Kbps
Channel(s)                       : 2 channels
Channel positions                : Front: L R
Sampling rate                    : 48.0 KHz
Stream size                      : 94.5 MiB (24%)
Language                         : English


Screens:

 
http://img245.imageshack.us/img245/4362/splicer5ooom4vthumbs201.jpg



PLEASE DONT COMPLAIN ABOUT MISSING SUBTITLES.. I DONT DO SUBS.. =)

PLEASE LET THE TORRENT SEED AND SPREAD THE WORD ABOUT 

Let me know what I can do to be your trusted source of Handheld videos.
 
http://thepiratebay.org/user/on.off.on/ -OOO